<svg xmlns="http://www.w3.org/2000/svg" viewBox="0 0 48 48" width="48" height="48">
  <style>
    @keyframes float {
      0% { transform: translateY(0px); }
      50% { transform: translateY(-3px); }
      100% { transform: translateY(0px); }
    }
    .icon {
      animation: float 3.0s ease-in-out infinite;
      animation-delay: 0.1s;
    }
  </style>
  <rect width="48" height="48" rx="8" fill="#181820" stroke="#30363d" stroke-width="1" />
  <g class="icon" transform="translate(12, 12)">
    <path d="M12.005 0L4.952 7.053a9.865 9.865 0 000 14.022 9.866 9.866 0 0014.022 0c3.984-3.9 3.986-10.205.085-14.023l-1.744 1.743c2.904 2.905 2.904 7.634 0 10.538s-7.634 2.904-10.538 0-2.904-7.634 0-10.538l4.647-4.646.582-.665zm3.568 3.899a1.327 1.327 0 00-1.327 1.327 1.327 1.327 0 001.327 1.328A1.327 1.327 0 0016.9 5.226 1.327 1.327 0 0015.573 3.9z" fill="#EE4C2C" />
  </g>
</svg>